<?xml version="1.0" standalone="yes"?>
<svg width="600" height="300">
<path style="fill:#ffffff; stroke:none;" d="M0 0L0 300L600 300L600 0L0 0z"/>
<path style="fill:#000000; stroke:none;" d="M90 59L90 258L492 258L492 59L90 59z"/>
<path style="fill:#bcc2c6; stroke:none;" d="M112 65L112 96C130.543 82.9499 146.451 69.1737 170 66L151 65L112 65M193 65.4244C165.27 69.1099 139.37 76.165 120.184 98C88.2473 134.347 102.488 194.041 142 217.547C176.57 238.113 219.354 235 258 235C304.147 235 354.47 240.604 400 232.679C422.152 228.823 444.689 220.531 459.7 203C492.109 165.149 479.683 106.255 438 81.6049C402.85 60.8182 359.068 65 320 65L237 65C222.599 65 207.279 63.5265 193 65.4244M404 65L404 66C428.061 67.9653 443.522 83.6198 464 93L464 65L404 65z"/>
<path style="fill:#585b5c; stroke:none;" d="M395 67L396 68L395 67M419 73L420 74L419 73z"/>
<path style="fill:#5e6163; stroke:none;" d="M151 75L152 76L151 75z"/>
<path style="fill:#595c5e; stroke:none;" d="M437 81L438 82L437 81M442 84L443 85L442 84z"/>
<path style="fill:#626567; stroke:none;" d="M449 89L450 90L449 89z"/>
<path style="fill:#5a5d5f; stroke:none;" d="M126 91L127 92L126 91z"/>
<path style="fill:#5b5e60; stroke:none;" d="M125 92L126 93L125 92z"/>
<path style="fill:#616466; stroke:none;" d="M124 93L125 94L124 93M123 94L124 95L123 94z"/>
<path style="fill:#575a5c; stroke:none;" d="M112 109L113 110L112 109z"/>
<path style="fill:#acb1b5; stroke:none;" d="M124 122C121.741 126.866 118.04 130.614 116.637 136C115.456 140.538 117.642 144.523 117.892 149C118.549 160.766 114.934 172.793 129.425 178.235C139.697 182.093 146.037 174.249 155.004 173.386C161.029 172.806 165.703 178.889 172.004 178.995C179.742 179.126 184.159 173.385 191.039 172.986C196.067 172.695 199.486 177.718 204.17 178.725C211.71 180.347 217.831 176.848 225 176.408C229.093 176.157 232.826 178.442 237 177.848C242.838 177.017 244.856 167.209 248.935 167.207C251.776 167.205 254.691 172.617 257.015 174.107C260.902 176.599 267.42 177.842 272 177.945C276.898 178.055 281.212 175.346 286 175.37C293.991 175.408 301.268 179.358 310 178.961C316.043 178.686 321.24 174.127 327 174.241C330.997 174.319 333.671 177.379 337.285 178.501C346.065 181.225 352.723 174.222 361 174.469C365.748 174.611 369.556 178.241 374 179.432C378.666 180.683 383.317 179.244 388 179.039C400.756 178.481 412.187 181.254 416 166C421.206 168.917 424.221 174.772 429.325 177.567C436.445 181.466 453.864 179.382 459.486 173.442C462.759 169.984 462 164.365 462 160C462.001 149.897 466.741 124.508 454.826 119.728C442.304 114.704 442.366 129.143 433.957 132.532C423.4 136.786 409.464 133.272 397.91 136.223C388.266 138.687 369.843 128.716 365 143C357.689 142.184 353.644 135.469 346 135.043C339.161 134.662 329.72 141.462 324.128 139.258C320.715 137.912 311.136 133.14 308.768 130.566C304.589 126.026 304.574 119.581 297 119.063C285.182 118.256 289.172 132.433 280.956 133.382C266.877 135.007 252.299 132.59 238 133.015C233.412 133.152 229.319 136.916 225.05 136.593C219.796 136.195 215.771 131.987 210 132.129C202.991 132.301 197.152 138.362 190.91 138.385C185.566 138.405 180.471 133.846 175 133.184C170.48 132.638 164.041 135.455 160.093 133.332C154.162 130.142 151.973 123.616 145 121.444C137.544 119.121 131.424 121.394 124 122z"/>
<path style="fill:#28ae61; stroke:none;" d="M293 122L293 167L299 167L299 163C301.185 164.762 303.241 166.402 306.002 167.183C326.805 173.067 328.843 132.764 307 136.355C304.006 136.847 301.517 138.419 299 140L299 122L293 122M447 122L447 140C444.779 138.488 442.681 137.115 439.998 136.546C419.734 132.25 418.234 169.89 439 167.441C442.085 167.078 444.482 165.683 447 164C447.796 167.716 450.637 167 454 167L454 122L447 122M129 153L123 153C123.126 166.9 146.253 175.31 150.566 159.985C155.436 142.684 132.148 147.661 129.832 136C128.055 127.054 143.323 129.716 145 138L151 138C150.654 123.695 127.388 117.884 123.438 133.001C119.183 149.28 143.379 144.611 144.534 156C145.512 165.645 129.995 161.911 129 153z"/>
<path style="fill:#93989b; stroke:none;" d="M292 125C289.97 131.404 292.052 141.716 284 143L286 154L261 154C265.487 168.971 276.831 157.691 286 157C275.213 181.319 241.096 156.504 262 139L262 138C257.405 138.853 251.675 137.953 250 143C235.4 138.816 238 157.995 238 167L232 167L232 147L225 147C225.933 172.999 194.017 172.632 194 147C191.024 147.061 187.045 148.254 184.209 147.311C179.059 145.599 177.571 140.684 171.004 142.319C162.261 144.495 161.845 158.025 170.019 161.258C177.739 164.311 181.114 156.531 188 156C181.532 177.761 155.346 164.68 159 145C149.965 151.913 150.47 145.988 151 138L145 138C143.963 128.721 128.087 126.948 129.427 136C131.063 147.057 154.805 143.314 150.566 158.996C146.699 173.301 124.456 168.073 123 155L122 155C118.907 167.996 126.981 178.061 140.83 174.698C146.21 173.391 150.374 167.765 156.015 167.283C163.597 166.636 168.293 174.328 177 172.66C182.305 171.643 186.114 165.45 191.011 165.033C194.791 164.711 197.789 169.484 200.87 171.137C205.504 173.625 212.955 173.897 217.996 172.501C220.828 171.717 223.175 169.103 226.08 168.762C230.107 168.29 233.631 172.748 237.566 169.393C242.968 164.788 237.599 151.218 247.985 149.921C252.298 149.383 253.118 155.027 253.895 158C255.747 165.086 257.896 172.207 266 173.671C274.576 175.22 279.341 169.341 287 169.056C295.314 168.747 302.48 174.691 312 172.721C316.742 171.741 319.995 166.262 324.91 166.412C332.051 166.63 335.766 174.306 344 173.981C350.592 173.72 355.767 165.632 361.831 166.398C368.3 167.215 370.476 174.318 378 173.907C384.946 173.527 402.576 174.557 407.566 169.566C412.235 164.898 407.408 149.069 416.921 148.596C423.496 148.27 422.22 160.957 424.075 164.999C428.088 173.742 443.704 176.168 451.891 171.682C456.28 169.277 455.993 164.345 456 160L456 129L454 129L454 167L447 164C429.547 172.819 421.907 157.472 426 142L420 143C405.4 138.816 408 157.995 408 167L402 167L402 144L395 145L396 167L389 164C384.113 165.994 379.404 168.394 374.004 166.877C367.692 165.103 364.158 158.402 369.229 153.225C372.527 149.858 386.388 149.801 387.079 145.755C388.214 139.103 374.678 141.467 373 147L367 147L367 143L358 145C362.677 163.676 339.11 177.277 329.457 158C327.205 153.503 328.403 148.721 329 144L321 144C326.154 160.264 314.119 172.008 299 163L299 167L293 167C293 155.043 296.611 135.988 292 125z"/>
<path style="fill:#909497; stroke:none;" d="M299 126L299 140C304.288 136.997 303.938 129.485 299 126z"/>
<path style="fill:#919598; stroke:none;" d="M446 126L441 137L447 140L446 126z"/>
<path style="fill:#8b8f92; stroke:none;" d="M122 133C120.396 139.737 120.065 152.287 129 153C129.607 164.055 146.811 164.656 144.663 155.039C143.25 148.718 133.62 148.158 129.043 145.031C124.458 141.897 124.086 137.604 122 133z"/>
<path style="fill:#28ae61; stroke:none;" d="M188 156C181.252 156.224 177.065 164.446 170.019 160.82C161.714 156.548 163.079 143.118 173 142.192C178.992 141.633 181.936 147.799 188 148C185.641 130.366 158.671 133.914 158.044 151C157.384 168.98 184.645 174.512 188 156M207 136.472C186.421 140.176 192.53 171.123 213 167.166C232.722 163.354 226.771 132.914 207 136.472M238 140C237.271 136.597 235.194 137.013 232 137L232 167L238 167C238 157.862 235.742 139.95 250 143C251.459 133.587 243.383 136.216 238 140M286 157C275.84 157.331 267.346 168.298 261 154L286 154C285.841 134.999 257.89 128.53 255.188 149C252.678 168.018 280.445 175.546 286 157M341 136.472C320.421 140.176 326.53 171.123 347 167.166C366.722 163.354 360.771 132.914 341 136.472M367 147L373 147C374.691 143.646 376.98 141.749 380.999 141.927C382.998 142.015 387.847 143.515 386.079 146.455C382.89 151.759 372.008 147.892 367.743 154.108C358.255 167.936 381.948 167.97 389 164L396 167C394.136 159.171 397.681 147.715 392.486 141.109C385.485 132.206 368.294 135.419 367 147M408 140C407.271 136.597 405.194 137.013 402 137L402 167L408 167C408 157.862 405.742 139.95 420 143C421.459 133.587 413.383 136.216 408 140z"/>
<path style="fill:#868a8d; stroke:none;" d="M261 149L280 149C276.02 138.971 265.28 139.504 261 149z"/>
<path style="fill:#919699; stroke:none;" d="M200 155L201 155C204.238 150.458 207.356 148.183 213 148C213.928 153.482 215.815 156.976 211 161C223.779 163.975 219.833 132.429 204.109 143.603C202.571 144.696 201.427 146.255 200.742 148.003C199.879 150.208 200.021 152.68 200 155z"/>
<path style="fill:#9ca1a4; stroke:none;" d="M304.105 142.742C294.189 146.928 299.979 165.564 310.956 161.254C320.947 157.331 315.851 137.784 304.105 142.742z"/>
<path style="fill:#909497; stroke:none;" d="M335 158L336 158C336.741 151.35 340.409 148.214 347 148C347.928 153.482 349.815 156.976 345 161C358.817 164.217 352.326 130.484 337.228 144.318C335.591 145.818 334.588 147.822 334.243 150C333.821 152.661 334.517 155.397 335 158z"/>
<path style="fill:#8b9093; stroke:none;" d="M430 155L431 155C433.932 145.414 444.603 147.97 446 157C452.443 141.645 430.17 135.938 430 155z"/>
<path style="fill:#a7acaf; stroke:none;" d="M213 148C211.031 148.023 208.913 147.879 207.035 148.6C189.74 155.233 216.976 170.215 214.606 154.004C214.311 151.987 213.521 149.969 213 148M347 148C345.048 148.023 342.894 147.859 341.039 148.603C324.883 155.089 351.014 170.473 348.606 154.004C348.311 151.987 347.521 149.969 347 148z"/>
<path style="fill:#a5aaae; stroke:none;" d="M435.059 148.942C426.394 152.905 434.01 164.452 441.941 161.254C450.671 157.734 443.152 145.24 435.059 148.942z"/>
<path style="fill:#adb2b6; stroke:none;" d="M172.318 153.043C167.506 156.059 171.905 162.737 176.852 159.957C182.375 156.852 177.156 150.012 172.318 153.043z"/>
<path style="fill:#868a8d; stroke:none;" d="M387 152C384.664 152.71 382.405 153.012 379.999 153.437C358.459 157.236 394.57 170.255 387 152z"/>
<path style="fill:#616466; stroke:none;" d="M472 181L473 182L472 181z"/>
<path style="fill:#5c5f61; stroke:none;" d="M466 193L467 194L466 193z"/>
<path style="fill:#616466; stroke:none;" d="M464 196L465 197L464 196z"/>
<path style="fill:#575a5c; stroke:none;" d="M120 199L121 200L120 199z"/>
<path style="fill:#696d6f; stroke:none;" d="M461 200L462 201L461 200z"/>
<path style="fill:#5b5e60; stroke:none;" d="M129 208L130 209L129 208z"/>
<path style="fill:#585b5d; stroke:none;" d="M137 214L138 215L137 214z"/>
<path style="fill:#bcc2c6; stroke:none;" d="M112 217L112 235L133 235L133 234L112 217M463 225L451 234L451 235L464 235L463 225z"/>
<path style="fill:#858a8d; stroke:none;" d="M168.667 228.333L169.333 228.667L168.667 228.333z"/>
<path style="fill:#696d6f; stroke:none;" d="M409.667 230.333L410.333 230.667L409.667 230.333z"/>
<path style="fill:#808486; stroke:none;" d="M404 231L404 232L407 232L404 231z"/>
<path style="fill:#94999c; stroke:none;" d="M193 233L193 234L197 234L193 233z"/>
<path style="fill:#64676a; stroke:none;" d="M393 233L393 234L396 234L393 233z"/>
<path style="fill:#9ba0a3; stroke:none;" d="M202 234L202 235L211 235L202 234z"/>
<path style="fill:#47494b; stroke:none;" d="M385 234L385 235L388 235L385 234z"/>
</svg>
